<?xml version="1.0" encoding="utf-8"?>
<!-- Generator: Adobe Illustrator 17.1.0, SVG Export Plug-In . SVG Version: 6.00 Build 0)  -->
<!DOCTYPE svg PUBLIC "-//W3C//DTD SVG 1.1//EN" "http://www.w3.org/Graphics/SVG/1.1/DTD/svg11.dtd">
<svg version="1.1" id="Layer_1" xmlns="http://www.w3.org/2000/svg" xmlns:xlink="http://www.w3.org/1999/xlink" x="0px" y="0px"
	 viewBox="0 0 32 32" enable-background="new 0 0 32 32" xml:space="preserve">
<g id="Layer_7">
	<path d="M30.4,28.1H9.3c0-1.5,0.3-3,0.9-4.3l3.6-3.5c0.7-0.1,1.3-0.5,1.8-1l1.2-1.3c0,0,0.1-0.1,0.1-0.1c0,0,0.1-0.1,0.1-0.1
		c0.8-0.9,1.1-2.5-0.5-4c-0.7-0.7-1.5-1.1-2.3-1.1c-0.7,0-1.3,0.3-1.8,0.7c0,0-0.1,0.1-0.1,0.1c-0.1-0.6-0.2-1.1-0.2-1.7
		c0-4.2,3.4-7.7,7.7-7.7c4.2,0,7.7,3.4,7.7,7.7c0,2.8-1.5,5.2-3.6,6.5C27.7,19.9,30.4,23.7,30.4,28.1z M15.5,14.8
		c-0.7-0.6-1.4-0.9-2.1-0.3l2.5,2.4C16.5,16.2,16.1,15.4,15.5,14.8z M14.5,18.3l1.2-1.3l-2.5-2.4L12,15.9c-0.4,0.4-0.5,0.9-0.4,1.4
		l-5.1,5.9c-0.4,0.4-0.6,0.8-0.3,1.2l0,0c-0.2,0.3-0.5,0.5-0.8,0.5c-0.5,0-1-0.5-0.9-0.9c0.1-0.9,1-1.6,1.3-2.5c0.3-0.8,0-1.8-0.9-2
		c-0.8-0.2-1.8,0.1-2.4,0.6c-0.2,0.1,0,0.5,0.2,0.3c0.6-0.4,2-1,2.6-0.3C6,21,5,22.1,4.5,22.8C4.3,23.2,4,23.6,4,24
		c0,0.4,0.3,0.8,0.6,1.1c0.7,0.5,1.3,0.1,1.8-0.4l0,0c0.4,0.2,0.8-0.1,1.1-0.5l5.6-5.4C13.7,18.9,14.2,18.7,14.5,18.3z"/>
</g>
</svg>
