<?xml version="1.0" encoding="utf-8"?>
<!-- Generator: Adobe Illustrator 17.1.0, SVG Export Plug-In . SVG Version: 6.00 Build 0)  -->
<!DOCTYPE svg PUBLIC "-//W3C//DTD SVG 1.1//EN" "http://www.w3.org/Graphics/SVG/1.1/DTD/svg11.dtd">
<svg version="1.1" id="Layer_1" xmlns="http://www.w3.org/2000/svg" xmlns:xlink="http://www.w3.org/1999/xlink" x="0px" y="0px"
	 viewBox="0 0 32 32" enable-background="new 0 0 32 32" xml:space="preserve">
<g id="settings">
	<path d="M25.2,17c0-0.4,0.1-0.7,0.1-1.2s0-0.9-0.1-1.2l2.6-2.1c0.2-0.2,0.2-0.5,0.1-0.7l-2.5-4.3c-0.1-0.1-0.4-0.2-0.7-0.1
		l-3.1,1.2c-0.6-0.5-1.4-0.9-2.1-1.2L19,4c0.1-0.4-0.2-0.6-0.5-0.6h-5c-0.2,0-0.6,0.2-0.6,0.5l-0.5,3.4C11.6,7.5,11,8,10.3,8.5
		l-3-1.2c-0.4-0.1-0.6,0-0.9,0.2l-2.5,4.3c-0.1,0.1,0,0.5,0.2,0.7l2.6,2c0,0.4-0.1,0.7-0.1,1.2s0,0.9,0.1,1.2l-2.6,2.1
		c-0.2,0.2-0.2,0.5-0.1,0.7l2.5,4.3c0.1,0.1,0.4,0.2,0.7,0.1l3.1-1.2c0.6,0.5,1.4,0.9,2.1,1.2l0.5,3.2c0,0.2,0.2,0.5,0.6,0.5h5
		c0.2,0,0.6-0.2,0.6-0.5l0.5-3.2c0.7-0.4,1.5-0.7,2.1-1.2l3.1,1.2c0.2,0.1,0.6,0,0.7-0.2l2.5-4.3c0.1-0.2,0.1-0.6-0.1-0.7L25.2,17z
		 M16,20.1c-2.4,0-4.3-2-4.3-4.3s2-4.3,4.3-4.3s4.3,2,4.3,4.3S18.3,20.1,16,20.1z"/>
</g>
</svg>
