<?xml version="1.0" encoding="utf-8"?>
<!-- Generator: Adobe Illustrator 17.1.0, SVG Export Plug-In . SVG Version: 6.00 Build 0)  -->
<!DOCTYPE svg PUBLIC "-//W3C//DTD SVG 1.1//EN" "http://www.w3.org/Graphics/SVG/1.1/DTD/svg11.dtd">
<svg version="1.1" id="Layer_1" xmlns="http://www.w3.org/2000/svg" xmlns:xlink="http://www.w3.org/1999/xlink" x="0px" y="0px"
	 viewBox="0 0 32 32" enable-background="new 0 0 32 32" xml:space="preserve">
<path d="M15,15.8c0-0.6,0.5-1.1,1.1-1.1c0.6,0,1.1,0.5,1.1,1.1s-0.5,1.1-1.1,1.1C15.5,16.9,15,16.4,15,15.8z M28.4,15.8
	c0,6.8-5.5,12.3-12.3,12.3c-0.2,0-0.4,0-0.6,0c0,0-0.1,0-0.1,0c-0.2,0-0.4,0-0.5,0c0,0-0.1,0-0.1,0c-0.2,0-0.3,0-0.5-0.1
	c-0.1,0-0.1,0-0.2,0c-0.1,0-0.2,0-0.3-0.1c-0.1,0-0.3-0.1-0.4-0.1c-0.1,0-0.1,0-0.2,0c-0.1,0-0.2-0.1-0.3-0.1c0,0,0,0,0,0
	c-0.2-0.1-0.4-0.1-0.7-0.2c0,0-0.1,0-0.1,0c-0.1,0-0.2-0.1-0.3-0.1c-0.1,0-0.3-0.1-0.4-0.2c0,0-0.1,0-0.1,0
	c-0.4-0.2-0.9-0.4-1.3-0.6l0,0c-1.9-1.1-3.4-2.6-4.5-4.5l0,0c-0.9-1.6-1.5-3.4-1.6-5.4c0,0,0-0.1,0-0.1c0-0.2,0-0.4,0-0.6
	C3.9,9,9.4,3.5,16.2,3.5c0.2,0,0.4,0,0.6,0c0,0,0.1,0,0.1,0c0.2,0,0.4,0,0.5,0c0,0,0.1,0,0.1,0c0.2,0,0.3,0,0.5,0.1
	c0.1,0,0.1,0,0.2,0c0.1,0,0.2,0,0.3,0.1c0.1,0,0.3,0.1,0.4,0.1c0.1,0,0.1,0,0.2,0c0.1,0,0.2,0.1,0.3,0.1c0,0,0,0,0,0
	c0.2,0.1,0.5,0.1,0.7,0.2c0,0,0.1,0,0.1,0c0.1,0,0.2,0.1,0.3,0.1c0.1,0,0.3,0.1,0.4,0.2c0,0,0.1,0,0.1,0c0.4,0.2,0.9,0.4,1.3,0.6
	l0,0c1.9,1.1,3.4,2.6,4.5,4.5l0,0c0.9,1.6,1.5,3.4,1.6,5.4c0,0,0,0.1,0,0.1C28.4,15.4,28.4,15.6,28.4,15.8z M21.5,6.5L19,10.9
	c0.8,0.5,1.5,1.2,2,2l4.5-2.6C24.5,8.8,23.2,7.4,21.5,6.5z M12.1,15.8c0,2.3,1.8,4.1,4.1,4.1s4.1-1.8,4.1-4.1c0-2.3-1.8-4.1-4.1-4.1
	S12.1,13.5,12.1,15.8z M10.8,25.1l2.6-4.5c-0.8-0.5-1.5-1.2-2-2l-4.5,2.6C7.8,22.8,9.2,24.1,10.8,25.1z"/>
</svg>
