<?xml version="1.0" encoding="utf-8"?>
<!-- Generator: Adobe Illustrator 17.1.0, SVG Export Plug-In . SVG Version: 6.00 Build 0)  -->
<!DOCTYPE svg PUBLIC "-//W3C//DTD SVG 1.1//EN" "http://www.w3.org/Graphics/SVG/1.1/DTD/svg11.dtd">
<svg version="1.1" id="Layer_1" xmlns:sketch="http://www.bohemiancoding.com/sketch/ns"
	 xmlns="http://www.w3.org/2000/svg" xmlns:xlink="http://www.w3.org/1999/xlink" x="0px" y="0px" viewBox="0 0 16 16"
	 enable-background="new 0 0 16 16" xml:space="preserve">
<title></title>
<g id="Icons_with_numbers">
	<g id="Group" transform="translate(-384.000000, -384.000000)">
		<path id="Rectangle_198" d="M386,390h2l3-3v10l-3-3h-2v-2V390z M398,392c0-2.1-0.7-3.9-1.9-5.4l0.8-0.7c1.3,1.7,2.2,3.8,2.2,6.1
			s-0.8,4.4-2.2,6.1l-0.8-0.7C397.3,395.9,398,394.1,398,392z M396,392c0-1.5-0.5-3-1.4-4.1l0.7-0.7c1,1.3,1.7,2.9,1.7,4.7
			c0,1.8-0.6,3.4-1.7,4.7l-0.7-0.7C395.5,395,396,393.5,396,392z M394,392c0-1-0.4-1.9-1-2.6v0l0.7-0.7c0.8,0.9,1.3,2,1.3,3.3
			s-0.5,2.5-1.3,3.3l-0.7-0.7v0C393.6,393.9,394,393,394,392z"/>
	</g>
</g>
</svg>
