<?xml version="1.0" encoding="utf-8"?>
<!-- Generator: Adobe Illustrator 17.1.0, SVG Export Plug-In . SVG Version: 6.00 Build 0)  -->
<!DOCTYPE svg PUBLIC "-//W3C//DTD SVG 1.1//EN" "http://www.w3.org/Graphics/SVG/1.1/DTD/svg11.dtd">
<svg version="1.1" id="Layer_1" xmlns="http://www.w3.org/2000/svg" xmlns:xlink="http://www.w3.org/1999/xlink" x="0px" y="0px"
	 viewBox="0 0 32 32" enable-background="new 0 0 32 32" xml:space="preserve">
<g>
	<path d="M27.3,21.9c-0.2-0.5-0.5-0.5-1-0.7c-2.1-0.8-3.8-1.1-5.8-1.9c-0.1-0.1-0.7-0.4-0.7-1.4c0-0.4-0.1-0.7-0.5-0.7
		c-0.1,0-0.1,0-0.1-0.3C19,16.1,19,15.6,19,15.4c0-0.1,0.1-0.3,0.2-0.3c0.7-0.9,0.9-2.1,0.9-2.6c0,0,0.1,0.1,0.3-0.3
		c0.1-0.4,0.2-0.5,0.3-1.1c0.1-0.3,0.2-1.1-0.3-1.1c-0.3,0.1-0.2,0-0.2-0.3V7.1c-0.1-0.9-0.7-1.5-1.1-1.7C18.5,5,18.3,4.9,18,4.6
		c-0.3-0.2-0.2-0.5,0-0.8c0.1-0.1,0.3-0.3,0.5-0.3c0,0-0.1,0-0.1,0c-0.1,0-1.6,0.2-2.2,0.3C15,4.1,13.9,4.5,13,5.2
		c-0.7,0.5-1.1,1.1-1.2,2c0,0.4,0,1.9,0,2.6c0,0.2,0,0.4-0.3,0.3c-0.6-0.1-0.3,1-0.2,1.1c0.1,0.4,0.3,0.7,0.3,1.1
		c0.1,0.3,0.2,0.3,0.2,0.3c0.1,0.7,0.4,2,1,2.6c0.1,0.1,0.1,0.2,0.1,0.3c-0.1,0.5-0.1,1.1-0.1,1.5c0,0.1-0.1,0.3-0.2,0.3
		c-0.4,0-0.5,0.3-0.5,0.7c-0.1,0.7-0.5,1.3-0.7,1.4c-1,0.5-4.5,1.5-5.6,1.9c-0.8,0.2-1,0.5-1.1,0.8l-1,2.5c4.4,0,7.6,3,10.9,3.4
		c0.3,0.1,0.6,0.1,0.9,0.1v-0.7c-1.7-0.3-3-1.7-3-3.4v-1h0.5v1c0,1.7,1.3,3,3,3c1.7,0,3-1.3,3-3v-1h0.5v1c0,1.7-1.3,3.2-3,3.4V28
		c0.3-0.1,0.6-0.1,0.6-0.1c4.7-0.8,7.9-3.5,11.2-3.5L27.3,21.9z M18.5,24c0,1.4-1.1,2.4-2.4,2.4c-1.3,0-2.4-1.1-2.4-2.4v-1h5
		L18.5,24L18.5,24z M18.5,22h-5v-1c0-1.4,1.1-2.4,2.4-2.4c1.3,0,2.4,1.1,2.4,2.4L18.5,22L18.5,22z"/>
</g>
</svg>
