<?xml version="1.0" encoding="utf-8"?>
<!-- Generator: Adobe Illustrator 17.1.0, SVG Export Plug-In . SVG Version: 6.00 Build 0)  -->
<!DOCTYPE svg PUBLIC "-//W3C//DTD SVG 1.1//EN" "http://www.w3.org/Graphics/SVG/1.1/DTD/svg11.dtd">
<svg version="1.1" id="Layer_1" xmlns="http://www.w3.org/2000/svg" xmlns:xlink="http://www.w3.org/1999/xlink" x="0px" y="0px"
	 viewBox="0 0 32 32" enable-background="new 0 0 32 32" xml:space="preserve">
<g id="_x37__music_node">
	<path d="M25.3,19.1C25.3,19.1,25.3,19.1,25.3,19.1c0-0.1,0-0.1,0-0.2c0,0,0-0.1,0-0.1c-4.8-2.9-4.1-11.7-9.6-14.7
		c-0.2-0.1-0.4-0.1-0.5-0.2c-0.1,0-0.1,0-0.2,0c-0.4,0-0.8,0.4-0.8,0.8v17.5c-0.8-0.5-1.8-0.8-2.9-0.8c-2.5,0-4.5,1.5-4.5,3.4
		s2,3.4,4.5,3.4s4.5-1.5,4.5-3.4c0,0,0,0,0,0c0,0,0,0,0,0V11.1c2.6,1.6,2.7,6.2,6.2,7.8c0.5,0.2,1.3,0.4,2.2,0.5c0.1,0,0.2,0,0.3,0
		c0.1,0,0.1,0,0.2,0c0.1,0,0.2,0,0.3,0C25,19.2,25.1,19.2,25.3,19.1z"/>
</g>
</svg>
